<?xml version="1.0" encoding="utf-8"?>
<!-- Generator: Adobe Illustrator 22.1.0, SVG Export Plug-In . SVG Version: 6.00 Build 0)  -->
<svg version="1.1" id="Layer_1" xmlns="http://www.w3.org/2000/svg" xmlns:xlink="http://www.w3.org/1999/xlink" x="0px" y="0px"
	 viewBox="0 0 1800 477.7" style="enable-background:new 0 0 1800 477.7;" xml:space="preserve">
<style type="text/css">
	.st0{display:none;}
	.st1{display:inline;}
</style>
<g class="st0">
	<path class="st1" d="M520.2-62.8l0.1,347.7h85V158.2c0-11,5.3-21.9,21.9-21.9s21.9,11,21.9,21.9v126.7c11.4,0,21.9,6.1,21.9,21.9
		s-10.5,21.9-21.9,21.9v89.4c0,14-6.1,21.9-21.9,21.9c-15.8,0-21.9-7.9-21.9-21.9v-89.4H476.4l-0.1-391.6"/>
	<path class="st1" d="M942.8,98.9c24.1,0,43.8,19.7,43.8,43.8l0.1,253.4c0,24.5-18.8,43.8-43.8,43.8H814c-25,0-43.8-19.3-43.8-43.8
		l-0.1-253.4c0-24.1,19.7-43.8,43.8-43.8L942.8,98.9z M942.9,396.1l-0.1-253.4H813.9l0.1,253.4H942.9z"/>
	<path class="st1" d="M1236.6,554.2l-0.1-225.7h-128.9l-0.1-207.8c0-11,5.3-21.9,21.9-21.9c16.7,0,21.9,11,21.9,21.9l0.1,163.9h85
		V157.9c0-11,5.3-21.9,21.9-21.9c16.7,0,21.9,11,21.9,21.9v126.7c11.4,0,21.9,6.1,21.9,21.9s-10.5,21.9-21.9,21.9l0.1,225.7"/>
</g>
<g>
	<g>
		<rect y="72.8" width="876.4" height="3.1"/>
		<path d="M940.5,403.5c24.8-4.2,49.5-15.3,69.3-30.5c7.9-6.1,15.3-12.8,22-20.2c3.1-2.4,6.1-5,8.8-7.9c15.4-16.2,26.4-38.3,34.4-60
			c8.5-16.8,13.5-34.9,13-54.3c1.1-14.1,0.2-28.4-3.2-42.3c-6.5-26.3-22.5-47.4-44-63.5c-12.7-9.5-26.7-17.5-41.5-23.6
			c-4.1-2.4-8.3-4.6-12.7-6.5c-21.1-12.2-46.4-16.8-70.2-19.9c-5.9-0.8-11.8-1.3-17.7-1.5c-9-0.6-17.8-0.8-26.5-0.6
			c-23.1,0.5-47.2,5-66.3,18.6c-20.1,14.3-31.4,36.6-36.8,60.2c-0.4,1.9-0.8,4-1.3,5.9c-26.5,41-40.8,91-25.8,138.8
			c7.8,24.9,22.3,48.5,45.8,61.1c12.1,6.5,25.4,10.3,38.4,14.5c4,1.3,8.1,2.6,12,3.9c7.9,4.6,15.6,8.8,23,12.5
			C886.4,401,912.5,408.2,940.5,403.5z M1024.4,351.7c-8.9,6.2-18.9,11.8-29.4,16.6c7.3-4.9,14.4-10.3,21.3-15.7
			c9.9-7.8,19.5-16.4,28.4-25.7c-4.8,7.8-10.4,15.2-16.5,22C1027,349.8,1025.7,350.8,1024.4,351.7z M772.2,160.6
			c6.3-9.9,13.3-19.3,21.2-27.8c-0.8,1.1-1.5,2.2-2.2,3.3c-7.9,12.3-15,25.6-20.9,39.3C770.8,170.4,771.3,165.5,772.2,160.6z
			 M1082.5,226.7c-1,19.5-5.8,39.2-13.2,57.5c0,0.1-0.1,0.1-0.1,0.1c-1,1.9-2.1,3.8-3.2,5.8c2.2-8.6,3.6-17.5,4.4-26.4
			c4.9-23,3.5-46.9-4.5-69.3c-2.6-10.5-6.5-20.6-12.2-30.1c-0.1-0.1-0.1-0.3-0.1-0.4c-1.3-3.3-2.6-6.5-4.2-9.6
			c13.4,14.2,23.8,31,29.4,50.5C1080.9,212.2,1082.1,219.5,1082.5,226.7z M766.3,243.2c0.4-1.5,0.8-2.9,1.3-4.4
			c3.7,25.4,11.1,50.4,24.1,72.5c9.3,15.9,21.3,29.5,35.2,40.4c-16.3-9.2-30.7-21.4-41.5-36.8C770.4,293.7,765,268.5,766.3,243.2z
			 M1065.8,241.2c0.1,6.6,0.1,13.2-0.4,19.8c-4.3,20.7-13.8,40.3-27.6,57.1c1-1.7,1.9-3.5,2.9-5.4c0.8-1.2,1.5-2.4,2.2-3.6
			c19.5-32.8,25.7-72.1,17.8-108.9c-0.1-1.9-0.2-3.8-0.3-5.6c0.1,0.4,0.3,0.8,0.5,1.2c0.1,0.3,0.3,0.8,0.4,1.1
			C1064.4,211.3,1065.3,226.2,1065.8,241.2z M900.6,372.9c-13.8-0.8-27.9-3.3-41.5-7.4c-5.1-2.2-10.1-4.7-15-7.5
			c-2.2-1.5-4.2-3.1-6.3-4.7c25.1,15,55.2,20.5,84.8,17.1c13.4,1,26.8-0.6,39.5-5.5c7.1-2.7,13.8-6.3,20-10.6c4-0.4,7.9-1.1,11.7-2
			c-4,2.6-8,5-12.2,7.2C956.4,370.3,928.2,374.6,900.6,372.9z M954.6,93.4c10.1,3.1,19.8,7.1,28.9,12.1c-22.6-8.8-47.1-15.2-71.4-14
			c-0.2-0.1-0.3-0.1-0.5-0.1C925.8,90.3,940.3,91,954.6,93.4z M1006.7,342.2c-5.1,2.6-10.4,4.5-16.1,5.7c2.4-1.9,4.6-4,6.8-6.1
			c12.6-8.7,23.9-19.1,33-31c1-1,1.9-2.2,2.9-3.2c-2,5.6-4.4,11-7.4,15.9c-5.2,6.3-10.9,12.1-17,17.5
			C1008.2,341.3,1007.5,341.8,1006.7,342.2z M832.3,342.9c-11.9-8.6-22.2-19.5-29.8-31.9c4.8,5.3,10,10,15.6,14.2
			c3.7,3.4,7.7,6.6,11.8,9.6c16,11.5,34.4,19.5,53.4,24.8c2.3,1.1,4.7,2.2,7.1,3.2c2.6,1,5.1,1.9,7.8,2.9
			C874.9,364.3,852,357.2,832.3,342.9z M827.9,125c1.8-1.1,3.7-2.2,5.6-3.2c-1.9,1.3-3.7,2.6-5.5,3.9c-0.6,0.4-1,0.8-1.6,1.3
			C826.9,126.3,827.4,125.6,827.9,125z M827.3,132.6c10.8-8.3,22.6-16,35.1-22.1c5.4-1.4,10.9-2.5,16.4-3.3
			c-5.8,1.6-11.3,3.8-16.8,6.7c-0.7,0.3-1,0.9-1.1,1.5c-9,4.1-17.7,9.3-25.6,15.3c-6.6,3.3-13,7-19.1,11.3c0-0.1,0.1-0.1,0.1-0.1
			C819.9,138.7,823.5,135.6,827.3,132.6z M969.1,110c-8.3-2.5-16.8-4.5-25.4-6.1c-0.6-0.3-1.2-0.6-1.8-1
			C951.2,104.2,960.3,106.5,969.1,110z M1037.2,156.5c2.4,3.9,4.6,7.9,6.5,11.9c-5.5-7.5-11.9-14.5-18.5-21.1
			c-1.7-2.3-3.4-4.5-5.2-6.7c0.5,0.4,1,0.8,1.5,1.2C1027.3,146.2,1032.5,151.2,1037.2,156.5z M1054.1,233.3c0,1.2-0.1,2.3-0.1,3.5
			c-0.5,3.8-1.1,7.4-1.7,11.2l0,0c-0.3-5.8-1.1-11.4-2.4-17c0.2-4.1,0.3-8.2,0.1-12.4c-0.7-17.2-4.7-33.7-11.5-48.9
			c5,6.5,9.4,13.4,12.7,20.7C1053.6,204.5,1054.4,219.1,1054.1,233.3z M1013.8,143.5c2.8,2.6,5.6,5.3,8.3,8.1
			c6.3,8.8,11.5,18.4,15.1,28.8c3.9,11,6.2,22.3,7,33.7c-0.4-1-0.9-2.1-1.3-3.1c-2.6-14-7.6-27.7-14.6-40.1
			c-13.9-24.6-36.2-44.1-62-55.6c0.3,0.1,0.6,0.1,0.8,0.2C984.2,121.1,999.7,130.2,1013.8,143.5z M970.8,350.2L970.8,350.2
			c5.7-3.8,11.4-7.7,16.9-11.7c1.8-0.7,3.7-1.5,5.4-2.3c-1.2,1.3-2.4,2.4-3.7,3.5C983.3,343.8,977,347.2,970.8,350.2z M1022.5,294
			c-1.7,3.1-3.5,6.3-5.4,9.6c-3.9,5.1-8.2,9.9-12.9,14.4c-5.9,5.6-12.2,10.7-18.8,15.5c-6.5,2.5-13.1,4.5-19.8,5.8
			c15-7.7,27.7-18.8,37.9-32.3c6.3-6.4,11.8-13.7,16.1-21.9c12.6-23.8,15.8-52.2,11.4-78.6c-0.2-1.4-0.5-2.7-0.8-4
			c7.4,27.1,5.8,56.5-3.9,83.5c-0.1,0.4-0.3,0.9-0.5,1.3C1024.9,289.5,1023.7,291.7,1022.5,294z M960.3,350.4
			c-7.9-0.1-15.6-0.5-23-0.6c-1.6-0.1-3.2-0.1-4.8-0.1c1.9-0.3,3.8-0.6,5.7-1c2.8-0.5,5.5-1.2,8.2-1.9c3.1-0.1,6.3-0.2,9.4-0.5
			c4.9-0.4,9.7-1.3,14.5-2.4C967.1,346.1,963.8,348.4,960.3,350.4z M804.3,221.6c-1.5-14.6,1.5-29.1,11.8-42.1
			c2.4-3,4.9-5.8,7.5-8.5c-4.9,13.4-7.7,27.7-9.6,41.9c-1.7,12.9-2.5,26.2-1.3,39.2c-3.3-7.8-6-15.8-7.4-23.8
			C804.9,226.2,804.7,223.9,804.3,221.6z M820.9,268.4c-7.4-27.5-3.3-59.5,4.3-86.3c1.9-6.7,4.5-13.1,7.4-19.3
			c12.5-10.2,27.3-17.8,42.4-22.5c46.4-14.1,105,1.5,132.1,43.7c14,21.8,13.4,48.2,9.7,73c-2.5,16.2-7.1,33.2-17.4,45.9
			c-21.1,21.5-52,32.6-83.3,30.1C875.6,329.9,840.9,302.9,820.9,268.4z M978.8,143.5c21.8,12.6,39,31.8,45.1,56.6
			c4,16.5,3.4,33.9-0.3,50.4c2.9-22.1,2.4-45.2-8.7-65.1c-25.8-46.5-88.5-65-137.7-51.5c-13.2,3.6-26.1,9.4-37.6,17
			c4.8-7.3,10.4-14,16.7-19.9c14-4.9,29.2-6.7,44-7C927.4,123.7,955,129.8,978.8,143.5z M842.6,137.3c-0.1,0.1-0.1,0.1-0.2,0.3
			c-5.5,6.6-9.9,13.8-13.6,21.4c-5.4,4.5-10.3,9.3-14.7,14.5c-4.2,4.9-7.9,10.4-10.6,16.1c0.2-3.3,0.6-6.7,1-9.9c1-2,1.9-4,3-5.9
			C815.9,157.9,828,146,842.6,137.3z M855.2,315.4c-0.5-0.3-0.9-0.6-1.4-0.8c-8.5-5.4-15.2-12-20.5-19.3
			C839.9,302.7,847.2,309.5,855.2,315.4z M925.4,340.2c-3.1-0.5-6.3-1-9.5-1.7c21.5,1.6,43.4-2.8,62.3-12.7
			c-0.1,0.1-0.3,0.3-0.5,0.3c-9.7,7.4-20.7,12.2-32.3,15.3C938.8,341.6,932.1,341.2,925.4,340.2z M972.1,128.8
			c2.8,2.3,5.6,4.6,8.3,7c-17.9-10.7-38.1-17.2-58.8-19.6c7.2,0,14.3,0.6,21.4,2C953.2,120.4,963,124,972.1,128.8z M789.3,246.5
			c-0.1-17.2,3.1-35.1,8.9-51.7c-0.1,3.8,0,7.6,0.1,11.4c-0.1,0.6-0.1,1.1-0.2,1.7c-1.2,12.2,1.7,24.8,5.6,36.3
			c5.4,24,14.4,48,28,68.6c-8.6-7.5-16.3-16-22.9-25.2C800.1,275.2,792.8,261.2,789.3,246.5z M828.1,297.2
			c11.3,15.6,28.1,26,46.3,33.5c16,6.6,32.9,12,50.2,14.6c-6.5,0.7-13.1,1-19.5,1c-1.4,0-2.9,0-4.2-0.1
			c-13.4-2.5-26.3-6.5-38.7-12.9c-5.3-2.7-10.4-5.7-15.3-9C839.6,316,833.5,306.8,828.1,297.2z M868,341.9c-0.9-0.2-1.8-0.5-2.8-0.7
			c-0.9-0.4-1.9-0.9-2.8-1.3c-0.5-0.4-0.9-0.8-1.4-1.2C863.4,339.8,865.7,340.9,868,341.9z M900.5,353.8c-3.1-0.8-6.3-1.7-9.3-2.7
			c3.2,0.3,6.5,0.4,9.7,0.5c16.6,2.9,33.7,3.5,50.6,3.6c-3.5,1.7-7.2,3.1-10.9,4.1C927.1,359.7,913.3,357.3,900.5,353.8z
			 M882.8,113.1c24.1-6.5,49.4-4.8,72.4,3.4c0.3,0.2,0.6,0.3,0.8,0.6c-16.8-5.4-35-7-53.4-4.5c-7.7,1-15.4,2.5-23.2,4.5
			c-2.2,0.3-4.3,0.7-6.4,1.1c2.6-1.6,5.1-3.1,7.9-4.5C881.5,113.5,882.1,113.3,882.8,113.1z M792.6,272.9c-0.3-1.4-0.7-2.8-1-4.2
			c5.5,11.6,12.9,22.5,20.9,32c9,10.6,19.5,20,31.2,27.8c0.6,0.7,1.2,1.3,1.7,2C822.9,316.6,804.2,297.7,792.6,272.9z M810.2,156
			c0.5-1.3,1-2.6,1.5-3.8c1.6-1.3,3.2-2.6,4.9-3.9C814.4,150.8,812.2,153.3,810.2,156z M787.1,185.1c3.9-9.5,9.7-17.9,16.7-25.3
			c-1.1,3.5-2.1,7.1-2.9,10.7c-0.9,1.6-1.7,3.2-2.5,4.9c-0.6,1.2-1.2,2.4-1.7,3.7c-9.6,16.7-16.3,35.3-14.9,54.5
			c0.1,1.8,0.3,3.7,0.6,5.5c0,0.5-0.1,1-0.1,1.5C779.1,221.8,780,202.4,787.1,185.1z M813.1,312.7c-2.6-2.9-4.9-6-7-9.1
			c6.7,8.1,14.3,15.4,22.6,21.8c-4-2.6-7.9-5.4-11.7-8.5C815.7,315.5,814.4,314.1,813.1,312.7z M1019.4,313.4c2.6-4.5,5-9,7.2-13.7
			c1.3-1.9,2.6-4,3.9-6.1c7.7-12.9,13.2-26.9,16.3-41.5c-0.3,20.7-8.8,39.6-21.7,55.8C1023.4,309.9,1021.5,311.7,1019.4,313.4z
			 M1021.2,135.1c-5.8-4.2-12-8.1-18.5-11.5c-5.9-4.7-12.2-9-19.1-12.5c8.8,3.5,17.3,7.6,25.5,12.3
			C1013.4,127,1017.4,130.9,1021.2,135.1z M929.9,97.4c-0.3-0.1-0.6-0.3-0.9-0.4c1.5,0.1,3,0.3,4.5,0.5
			C932.3,97.5,931.1,97.4,929.9,97.4z M912.6,96.6c1.5,0.4,3.1,0.9,4.5,1.4c-4.2,0.4-8.3,1.1-12.5,2c-5.7-0.1-11.5,0.2-17.2,0.8
			c1.7-0.5,3.5-1,5.4-1.4C899.4,97.8,906,97,912.6,96.6z M778.1,245.6c1.1,5.4,2.6,10.6,4.2,15.7c0.1,1.5,0.2,3.1,0.3,4.7
			c-0.5-1.5-0.9-2.9-1.4-4.4C780,256.3,778.9,251,778.1,245.6z M897,93.3c-12.5,2.4-24.6,6.7-36.1,12.2c-3.4,0.9-6.8,1.9-10.2,3.1
			c14.2-7.4,29.6-12.7,45.8-15.4C896.6,93.2,896.8,93.3,897,93.3z M813.6,137.7c-9.8,9.3-18.2,19.8-25,31.3
			c7.5-13.3,16.8-25.2,27.5-35.4C815.2,134.9,814.4,136.3,813.6,137.7z M896.3,380.6c9.2,1.1,18.6,1.4,28.1,0.6
			c19.8-1.5,39-6.9,56.5-15.6c5.3-2.2,10.4-4.5,15.4-7.2c-2.3,1.7-4.7,3.5-7.1,5.1C961.5,382.2,928,387.2,896.3,380.6z M831.2,114.5
			c-5.5,3.8-10.6,8-15.6,12.5c-4.3,3.2-8.3,6.7-12.2,10.6c5.2-6.4,11.3-12.4,18.2-17.7c4.6-3.6,9.5-6.9,14.5-9.9
			C834.4,111.4,832.8,112.9,831.2,114.5z M1052.8,306.8c2.2-3.4,4.2-7,6-10.5c-1.1,3.5-2.4,7-3.8,10.4c-5.9,7.9-12.5,15.3-19.5,22.2
			C1041.9,322.1,1047.7,314.8,1052.8,306.8z M912.7,80.3c3,0.4,5.9,0.8,8.9,1.3c-1.9,0-4,0.1-5.9,0.1c-29.1-1.4-58.1,4.1-83.6,16.6
			c4.5-3.3,9.1-6.3,14-8.9c16.6-8.8,34.6-11.3,52.7-10.7C903.5,79.2,908.1,79.7,912.7,80.3z M825.9,106.7
			c11.1-6.3,23.2-11,35.6-14.3c-0.8,0.3-1.6,0.6-2.4,0.9c-22,8.4-42.6,21.4-58.3,39.2c-4.4,4.9-8.2,10.2-11.5,15.7
			c7.2-12.4,15.5-24.1,25.2-34.3C818.2,111.3,822,108.9,825.9,106.7z M784.4,157.4c-4.4,9-7.6,18.5-9.7,28.3
			c-0.6,1.5-1.3,3.1-1.8,4.6c-1.2,3.1-2.3,6.2-3.3,9.3c0-2.4,0-4.8,0-7.2C773.5,180.7,778.4,168.8,784.4,157.4z M765.2,215.5
			c-1.9,8.4-3.1,17-3.7,25.5c-0.9,3.2-1.7,6.5-2.4,9.7c-0.2-14.4,1.9-28.8,5.7-42.8C764.8,210.5,764.9,213,765.2,215.5z
			 M762.2,276.6c-0.3-3.5-0.3-7-0.1-10.5c1.7,14.3,5.7,28.2,12.5,41c-5-8-8.9-16.7-11.5-26.3c-0.2-0.9-0.4-1.8-0.7-2.6
			C762.4,277.7,762.3,277.1,762.2,276.6z M807.9,347.2c21.8,14.1,46.5,27.1,72.2,35c-12.8-2.9-25.5-6.6-38.1-10.6
			c-14-8.3-27.7-17.9-39.9-28.3C804,344.6,806,345.9,807.9,347.2z M1049.9,139.4c15.7,14.7,25.1,32.6,29.6,51.5
			c-8.4-20.6-22.4-38-39.4-52.4c-4.9-7-10.6-13.6-16.9-19.5C1032.8,125,1041.8,131.8,1049.9,139.4z M785.9,120.6
			c12.2-21,32.3-33.9,55.6-39.4c5.6-1.3,11.3-2.2,17-2.8c-5.9,1.9-11.8,4.4-17.4,7.6c-12,6.7-22.4,15.6-31.6,25.8
			c-10.6,7.7-20.4,17-28.9,27.8c-1.9,2.4-3.8,4.9-5.6,7.4C777.6,137.8,781.1,128.8,785.9,120.6z M813.9,362.3
			c-13.6-4.5-27-9.9-37.8-19.5c-9.2-8.1-16.2-18.4-21.5-29.4c-23-47-13.4-98.5,11.3-142.2c-0.7,6.3-1.1,12.7-1.3,19.1
			c-2.6,7.7-4.9,15.4-6.7,23.2c-5,21.6-5.9,44.4-0.6,66c4.3,36.2,32.2,64.1,63.2,85C818.2,363.8,816.1,363,813.9,362.3z
			 M866.7,384.9c-0.9-0.5-1.9-1-2.8-1.5c0.8,0.2,1.7,0.5,2.6,0.8c25,6.8,51.4,11.3,77.3,6.7c6.5-1.2,12.7-3,18.8-5.2
			c1.9-0.5,3.8-1,5.6-1.7c13.2-4.2,26-10,38.5-16.1c0.9-0.4,1.8-0.9,2.7-1.4c-0.4,0.3-0.8,0.7-1.3,1c-17.9,14-38.8,24.2-61,29.3
			C919.1,403.3,892,397.4,866.7,384.9z"/>
		<rect x="921.4" y="402.2" width="878.6" height="2.7"/>
	</g>
	<g>
		<path d="M690.4,288.8c0,4-0.6,7-1.8,9.3c-1.2,2.3-2.9,3.4-5,3.4h-26.2v48.7c0,1-0.3,1.7-0.8,2.4c-0.5,0.6-1.3,1.3-2.6,1.7
			c-1.3,0.5-2.9,0.8-4.8,1s-4.5,0.3-7.6,0.3c-2.9,0-5.4-0.1-7.4-0.3s-3.5-0.6-4.7-1c-1.2-0.5-1.9-1-2.4-1.7
			c-0.4-0.6-0.6-1.5-0.6-2.4v-48.7h-94.7c-1.4,0-2.6-0.2-3.5-0.6s-1.8-1-2.6-1.9c-0.8-1-1.3-2.3-1.6-4.1s-0.4-4.1-0.4-7
			c0-2.3,0.1-4.3,0.2-6.1c0.1-1.8,0.3-3.4,0.7-4.9c0.3-1.5,0.8-2.9,1.4-4.3s1.3-2.9,2.2-4.4l82.6-140.6c0.6-1,1.5-1.8,2.6-2.5
			c1.2-0.7,2.6-1.3,4.5-1.8c1.8-0.5,4.1-0.8,6.7-1c2.6-0.1,5.8-0.3,9.5-0.3c4,0,7.5,0.1,10.5,0.4c3,0.3,5.4,0.7,7.2,1.2
			c1.8,0.5,3.2,1.1,4.2,1.9s1.5,1.7,1.5,2.8V276h26.2c2,0,3.7,1,4.9,3.1C689.8,281.2,690.4,284.4,690.4,288.8z M626.7,149h-0.3
			l-74.4,127h74.8V149z"/>
	</g>
	<g>
		<path d="M1283.1,288.1c0,4-0.6,7-1.8,9.3c-1.2,2.3-2.9,3.4-5,3.4h-26.2v48.7c0,1-0.3,1.7-0.8,2.4c-0.5,0.6-1.3,1.3-2.6,1.7
			c-1.3,0.4-2.9,0.8-4.8,1s-4.5,0.3-7.6,0.3c-2.9,0-5.4-0.1-7.4-0.3s-3.5-0.6-4.7-1c-1.2-0.5-1.9-1-2.4-1.7
			c-0.4-0.6-0.6-1.5-0.6-2.4v-48.7h-94.7c-1.4,0-2.6-0.2-3.5-0.6c-1-0.3-1.8-1-2.6-1.9c-0.8-1-1.3-2.3-1.6-4.1
			c-0.3-1.8-0.4-4.1-0.4-7c0-2.3,0.1-4.3,0.2-6.1c0.1-1.8,0.3-3.4,0.7-4.9c0.3-1.5,0.8-2.9,1.4-4.3c0.6-1.4,1.3-2.9,2.2-4.4
			l82.6-140.6c0.6-1,1.5-1.8,2.6-2.5c1.2-0.7,2.6-1.3,4.5-1.8s4.1-0.8,6.7-1c2.6-0.2,5.8-0.3,9.5-0.3c4,0,7.5,0.1,10.5,0.4
			c3,0.3,5.4,0.7,7.2,1.2c1.8,0.5,3.2,1.1,4.2,1.9s1.5,1.7,1.5,2.8v147.7h26.2c2,0,3.7,1,4.9,3.1
			C1282.5,280.5,1283.1,283.7,1283.1,288.1z M1219.4,148.3h-0.3l-74.4,127.1h74.8V148.3z"/>
	</g>
</g>
</svg>
